<svg xmlns="http://www.w3.org/2000/svg" viewBox="0 0 800 800">
  <defs>
    <linearGradient id="bg" x1="0" y1="0" x2="1" y2="1"><stop stop-color="#fffaf5"/><stop offset=".62" stop-color="#ead8d0"/><stop offset="1" stop-color="#c99c91"/></linearGradient>
    <linearGradient id="silver" x1="0" y1="0" x2="1" y2="1"><stop stop-color="#fff"/><stop offset=".52" stop-color="#c6c7c9"/><stop offset="1" stop-color="#f2f2f2"/></linearGradient>
    <filter id="s"><feDropShadow dx="0" dy="20" stdDeviation="23" flood-color="#4d3832" flood-opacity=".18"/></filter>
  </defs>
  <rect width="800" height="800" rx="52" fill="url(#bg)"/>
  <rect x="150" y="496" width="500" height="120" rx="60" fill="#fff" opacity=".68"/>
  <path d="M168 235c47-29 93-30 137-5" stroke="#fff" stroke-width="10" stroke-linecap="round" fill="none" opacity=".42"/>
  <circle cx="398" cy="405" r="116" fill="none" stroke="url(#silver)" stroke-width="29" filter="url(#s)"/>
  <circle cx="398" cy="405" r="76" fill="none" stroke="#fff" stroke-width="8" opacity=".72"/>
  <path d="M364 270c17-34 68-34 85 0 20 39-19 76-51 99-32-23-71-60-51-99z" fill="url(#silver)" filter="url(#s)"/>
  <path d="M398 362c22-18 45-41 38-68" fill="none" stroke="#fff" stroke-width="6" opacity=".75"/>
  <circle cx="594" cy="244" r="6" fill="#fff"/>
</svg>
