<svg xmlns="http://www.w3.org/2000/svg" viewBox="0 0 800 800">
  <defs>
    <radialGradient id="bg" cx=".65" cy=".2" r=".9"><stop stop-color="#fff"/><stop offset=".48" stop-color="#f3dfd6"/><stop offset="1" stop-color="#c89e94"/></radialGradient>
    <linearGradient id="silver" x1="0" y1="0" x2="1" y2="1"><stop stop-color="#fff"/><stop offset=".5" stop-color="#bfc0c3"/><stop offset="1" stop-color="#f8f8f8"/></linearGradient>
    <filter id="s"><feDropShadow dx="0" dy="26" stdDeviation="24" flood-color="#30251f" flood-opacity=".18"/></filter>
  </defs>
  <rect width="800" height="800" rx="52" fill="url(#bg)"/>
  <path d="M88 602c132-115 267-120 405-75 85 27 156 23 240-15v288H88z" fill="#fff9f5" opacity=".86"/>
  <ellipse cx="397" cy="568" rx="248" ry="68" fill="#eadbd3"/>
  <circle cx="400" cy="392" r="128" fill="none" stroke="url(#silver)" stroke-width="31" filter="url(#s)"/>
  <circle cx="400" cy="392" r="88" fill="none" stroke="#fff" stroke-width="8" opacity=".82"/>
  <path d="M357 235h86l46 58-89 82-89-82z" fill="url(#silver)" filter="url(#s)"/>
  <path d="M357 235l43 140 43-140M311 293h178" fill="none" stroke="#fff" stroke-width="6" opacity=".82"/>
  <g fill="#fff"><circle cx="568" cy="221" r="7"/><circle cx="612" cy="287" r="5"/><circle cx="225" cy="305" r="4"/><circle cx="518" cy="170" r="3"/></g>
</svg>
