<svg xmlns="http://www.w3.org/2000/svg" viewBox="0 0 800 800">
  <defs>
    <linearGradient id="bg" x1="0" y1="0" x2="1" y2="1"><stop stop-color="#fffaf6"/><stop offset=".55" stop-color="#ead4cb"/><stop offset="1" stop-color="#d5a99c"/></linearGradient>
    <linearGradient id="silver" x1="0" y1="0" x2="1" y2="1"><stop stop-color="#fff"/><stop offset=".28" stop-color="#e7e7e7"/><stop offset=".62" stop-color="#bfc0c2"/><stop offset="1" stop-color="#f5f5f5"/></linearGradient>
    <filter id="shadow" x="-20%" y="-20%" width="140%" height="140%"><feDropShadow dx="0" dy="24" stdDeviation="24" flood-color="#4b3832" flood-opacity=".18"/></filter>
  </defs>
  <rect width="800" height="800" rx="52" fill="url(#bg)"/>
  <path d="M44 562c153-80 284-90 449-44 92 25 179 16 263-22v304H44z" fill="#fff7f1" opacity=".82"/>
  <ellipse cx="398" cy="545" rx="248" ry="78" fill="#fff" opacity=".72"/>
  <ellipse cx="400" cy="530" rx="210" ry="58" fill="#efe0d8"/>
  <circle cx="402" cy="374" r="126" fill="none" stroke="url(#silver)" stroke-width="34" filter="url(#shadow)"/>
  <circle cx="402" cy="374" r="83" fill="none" stroke="#fff" stroke-width="10" opacity=".9"/>
  <path d="M371 244h62l35 45-66 62-66-62z" fill="url(#silver)" filter="url(#shadow)"/>
  <path d="M371 244l31 107 31-107M336 289h132" fill="none" stroke="#fff" stroke-width="5" opacity=".75"/>
  <circle cx="605" cy="210" r="7" fill="#fff"/>
  <circle cx="632" cy="246" r="4" fill="#fff"/>
  <path d="M149 264c34-42 77-53 128-31" fill="none" stroke="#fff" stroke-width="9" stroke-linecap="round" opacity=".48"/>
</svg>
