<svg xmlns="http://www.w3.org/2000/svg" viewBox="0 0 800 800">
  <defs>
    <radialGradient id="bg" cx=".25" cy=".12" r=".9"><stop stop-color="#fff"/><stop offset=".55" stop-color="#f1dfd7"/><stop offset="1" stop-color="#c9a096"/></radialGradient>
    <linearGradient id="silver" x1="0" y1="0" x2="1" y2="1"><stop stop-color="#fff"/><stop offset=".5" stop-color="#c3c4c6"/><stop offset="1" stop-color="#f7f7f7"/></linearGradient>
    <filter id="s"><feDropShadow dx="0" dy="22" stdDeviation="22" flood-color="#3c2d29" flood-opacity=".18"/></filter>
  </defs>
  <rect width="800" height="800" rx="52" fill="url(#bg)"/>
  <rect x="150" y="478" width="500" height="108" rx="54" fill="#fff" opacity=".66"/>
  <path d="M281 401c0-68 55-123 123-123 54 0 101 35 117 84" fill="none" stroke="url(#silver)" stroke-width="29" stroke-linecap="round" filter="url(#s)"/>
  <path d="M523 363c17 77-42 154-123 154-50 0-93-29-113-71" fill="none" stroke="url(#silver)" stroke-width="29" stroke-linecap="round" filter="url(#s)"/>
  <circle cx="281" cy="401" r="25" fill="url(#silver)" filter="url(#s)"/>
  <path d="M500 321h44l26 34-48 47-48-47z" fill="url(#silver)" filter="url(#s)"/>
  <circle cx="612" cy="238" r="6" fill="#fff"/>
  <circle cx="220" cy="277" r="5" fill="#fff"/>
</svg>
