<svg xmlns="http://www.w3.org/2000/svg" viewBox="0 0 800 800">
  <defs>
    <linearGradient id="bg" x1="0" y1="0" x2="1" y2="1"><stop stop-color="#fffdf9"/><stop offset=".7" stop-color="#efe0d8"/><stop offset="1" stop-color="#cda99e"/></linearGradient>
    <linearGradient id="silver" x1="0" y1="0" x2="1" y2="1"><stop stop-color="#fafafa"/><stop offset=".45" stop-color="#c9cacc"/><stop offset="1" stop-color="#fff"/></linearGradient>
    <filter id="s"><feDropShadow dx="0" dy="20" stdDeviation="22" flood-color="#4d3a34" flood-opacity=".18"/></filter>
  </defs>
  <rect width="800" height="800" rx="52" fill="url(#bg)"/>
  <rect x="138" y="148" width="524" height="492" rx="42" fill="#fff8f2" opacity=".72"/>
  <path d="M130 515c108-58 210-69 327-28 96 34 165 22 250-25v224H130z" fill="#efe2da"/>
  <ellipse cx="390" cy="522" rx="178" ry="44" fill="#fff" opacity=".7"/>
  <circle cx="392" cy="392" r="106" fill="none" stroke="url(#silver)" stroke-width="24" filter="url(#s)"/>
  <circle cx="392" cy="392" r="78" fill="none" stroke="#fff" stroke-width="7" opacity=".75"/>
  <circle cx="392" cy="271" r="18" fill="url(#silver)" filter="url(#s)"/>
  <path d="M210 226c34-20 70-18 108 4M575 594c-36 15-69 12-99-9" fill="none" stroke="#caa79d" stroke-width="7" stroke-linecap="round" opacity=".45"/>
</svg>
