<svg xmlns="http://www.w3.org/2000/svg" viewBox="0 0 800 800">
  <defs>
    <linearGradient id="bg" x1="0" y1="0" x2="1" y2="1"><stop stop-color="#fffbf7"/><stop offset=".7" stop-color="#eee0d8"/><stop offset="1" stop-color="#cfa99d"/></linearGradient>
    <linearGradient id="silver" x1="0" y1="0" x2="1" y2="1"><stop stop-color="#fff"/><stop offset=".5" stop-color="#c6c7c9"/><stop offset="1" stop-color="#f9f9f9"/></linearGradient>
    <filter id="s"><feDropShadow dx="0" dy="18" stdDeviation="20" flood-color="#3f302c" flood-opacity=".16"/></filter>
  </defs>
  <rect width="800" height="800" rx="52" fill="url(#bg)"/>
  <path d="M64 563c124-84 232-93 352-61 123 33 208 19 314-42v340H64z" fill="#fff8f2" opacity=".72"/>
  <ellipse cx="400" cy="546" rx="198" ry="49" fill="#eadbd4"/>
  <circle cx="400" cy="402" r="118" fill="none" stroke="url(#silver)" stroke-width="17" filter="url(#s)"/>
  <circle cx="400" cy="402" r="94" fill="none" stroke="#fff" stroke-width="5" opacity=".65"/>
  <path d="M388 284c12-19 36-19 48 0 12 20-4 44-36 70-32-26-48-50-36-70z" fill="url(#silver)" filter="url(#s)"/>
  <path d="M181 259c42-28 85-31 129-8" stroke="#fff" stroke-width="8" stroke-linecap="round" fill="none" opacity=".45"/>
</svg>
