<svg xmlns="http://www.w3.org/2000/svg" viewBox="0 0 800 800">
  <defs>
    <radialGradient id="bg" cx=".22" cy=".12" r=".95"><stop stop-color="#fff"/><stop offset=".55" stop-color="#f0ded6"/><stop offset="1" stop-color="#cba297"/></radialGradient>
    <linearGradient id="silver" x1="0" y1="0" x2="1" y2="1"><stop stop-color="#fff"/><stop offset=".5" stop-color="#c2c3c6"/><stop offset="1" stop-color="#f8f8f8"/></linearGradient>
    <filter id="s"><feDropShadow dx="0" dy="22" stdDeviation="22" flood-color="#44342f" flood-opacity=".17"/></filter>
  </defs>
  <rect width="800" height="800" rx="52" fill="url(#bg)"/>
  <path d="M90 583c134-82 256-91 382-48 90 31 163 20 240-28v293H90z" fill="#fff8f3" opacity=".78"/>
  <circle cx="400" cy="268" r="42" fill="none" stroke="url(#silver)" stroke-width="15" filter="url(#s)"/>
  <path d="M464 336c-70 21-112 90-94 160 13 51 54 88 103 101-20 9-42 14-66 14-90 0-163-73-163-163s73-163 163-163c23 0 42 4 57 11z" fill="url(#silver)" filter="url(#s)"/>
  <circle cx="512" cy="386" r="8" fill="#fff"/>
  <circle cx="552" cy="447" r="5" fill="#fff"/>
  <path d="M188 262c36-24 72-25 109-3" fill="none" stroke="#fff" stroke-width="8" stroke-linecap="round" opacity=".45"/>
</svg>
