<svg xmlns="http://www.w3.org/2000/svg" viewBox="0 0 800 800">
  <defs>
    <linearGradient id="bg" x1="0" y1="0" x2="1" y2="1"><stop stop-color="#fffdf9"/><stop offset=".62" stop-color="#efddd5"/><stop offset="1" stop-color="#cda095"/></linearGradient>
    <linearGradient id="silver" x1="0" y1="0" x2="1" y2="1"><stop stop-color="#fff"/><stop offset=".5" stop-color="#c2c3c6"/><stop offset="1" stop-color="#fafafa"/></linearGradient>
    <filter id="s"><feDropShadow dx="0" dy="22" stdDeviation="22" flood-color="#44342f" flood-opacity=".17"/></filter>
  </defs>
  <rect width="800" height="800" rx="52" fill="url(#bg)"/>
  <rect x="146" y="184" width="508" height="430" rx="50" fill="#fff8f3" opacity=".7"/>
  <circle cx="400" cy="270" r="41" fill="none" stroke="url(#silver)" stroke-width="15" filter="url(#s)"/>
  <path d="M258 434c54-87 139-86 142 0 3-86 88-87 142 0-54 87-139 86-142 0-3 86-88 87-142 0z" fill="none" stroke="url(#silver)" stroke-width="34" stroke-linecap="round" filter="url(#s)"/>
  <path d="M314 400c28-23 62-13 86 34 24-47 58-57 86-34" fill="none" stroke="#fff" stroke-width="8" stroke-linecap="round" opacity=".62"/>
  <path d="M205 243c40-21 79-20 118 4" fill="none" stroke="#caa49a" stroke-width="7" stroke-linecap="round" opacity=".42"/>
</svg>
